<?xml version="1.0" encoding="utf-8"?>
<!-- Generator: Adobe Illustrator 27.5.0, SVG Export Plug-In . SVG Version: 6.00 Build 0)  -->
<svg version="1.1" xmlns="http://www.w3.org/2000/svg" xmlns:xlink="http://www.w3.org/1999/xlink" x="0px" y="0px"
	 viewBox="0 0 750 500" style="enable-background:new 0 0 750 500;" xml:space="preserve">
<g id="BACKGROUND">
	<rect style="fill:#EDEEF1;" width="750" height="500"/>
	<rect y="444.288" style="fill:#DCDEE2;" width="750" height="55.712"/>
	<g>
		<g style="opacity:0.5;">
			<g>
				<g>
					<g>
						<ellipse style="fill:#DCDEE2;" cx="44.002" cy="302.588" rx="10.803" ry="12.004"/>
					</g>
				</g>
			</g>
		</g>
		<g>
			<g>
				<g>
					<path style="fill:#DCDEE2;" d="M50.851,340.7c0,10.206,8.014,18.479,17.899,18.479c9.886,0,17.899-8.273,17.899-18.479
						c0-10.206-8.014-18.48-17.899-18.48C58.865,322.22,50.851,330.493,50.851,340.7z"/>
				</g>
			</g>
			<g>
				<g>
					<path style="fill:#DCDEE2;" d="M463.256,58.157c0,10.206,8.014,18.479,17.899,18.479c9.886,0,17.899-8.273,17.899-18.479
						c0-10.206-8.014-18.48-17.899-18.48C471.27,39.678,463.256,47.951,463.256,58.157z"/>
				</g>
			</g>
			<g>
				<g>
					<ellipse style="fill:#DCDEE2;" cx="525.489" cy="52.535" rx="9.72" ry="10.035"/>
				</g>
			</g>
			<g>
				<path style="fill:#DCDEE2;" d="M44.002,168.486c0.01-69.426,56.001-145.5,125.685-150.096c1.224-0.081,2.459-0.19,3.709-0.211
					c118.392-2.004,107.55,75.329,198.292,86.839c98.656,12.514,199.836-72.623,296.21,18.858
					c77.514,73.578,94.402,296.571-190.996,306.028C248.559,437.471,43.972,375.621,44.002,168.486z"/>
			</g>
		</g>
	</g>
</g>
<g id="OBJECTS">
	<g>
		<g>
			<path style="fill:#FFFFFF;" d="M618.861,22.723c0,1.609-1.305,2.914-2.914,2.914c-1.61,0-2.914-1.305-2.914-2.914
				c0-1.61,1.305-2.915,2.914-2.915C617.556,19.808,618.861,21.113,618.861,22.723z"/>
			<path style="fill:#FFFFFF;" d="M640.445,22.723c0,1.609-1.305,2.914-2.914,2.914c-1.61,0-2.914-1.305-2.914-2.914
				c0-1.61,1.305-2.915,2.914-2.915C639.14,19.808,640.445,21.113,640.445,22.723z"/>
			<path style="fill:#FFFFFF;" d="M662.028,22.723c0,1.609-1.305,2.914-2.914,2.914c-1.61,0-2.915-1.305-2.915-2.914
				c0-1.61,1.305-2.915,2.915-2.915C660.724,19.808,662.028,21.113,662.028,22.723z"/>
			<path style="fill:#FFFFFF;" d="M683.612,22.723c0,1.609-1.305,2.914-2.914,2.914c-1.61,0-2.915-1.305-2.915-2.914
				c0-1.61,1.305-2.915,2.915-2.915C682.307,19.808,683.612,21.113,683.612,22.723z"/>
			<path style="fill:#FFFFFF;" d="M705.196,22.723c0,1.609-1.305,2.914-2.914,2.914c-1.609,0-2.914-1.305-2.914-2.914
				c0-1.61,1.305-2.915,2.914-2.915C703.891,19.808,705.196,21.113,705.196,22.723z"/>
			<path style="fill:#FFFFFF;" d="M726.779,22.723c0,1.609-1.305,2.914-2.914,2.914c-1.61,0-2.914-1.305-2.914-2.914
				c0-1.61,1.305-2.915,2.914-2.915C725.474,19.808,726.779,21.113,726.779,22.723z"/>
			<path style="fill:#FFFFFF;" d="M618.861,40.833c0,1.61-1.305,2.914-2.914,2.914c-1.61,0-2.914-1.305-2.914-2.914
				c0-1.61,1.305-2.914,2.914-2.914C617.556,37.918,618.861,39.223,618.861,40.833z"/>
			<path style="fill:#FFFFFF;" d="M640.445,40.833c0,1.61-1.305,2.914-2.914,2.914c-1.61,0-2.914-1.305-2.914-2.914
				c0-1.61,1.305-2.914,2.914-2.914C639.14,37.918,640.445,39.223,640.445,40.833z"/>
			<path style="fill:#FFFFFF;" d="M662.028,40.833c0,1.61-1.305,2.914-2.914,2.914c-1.61,0-2.915-1.305-2.915-2.914
				c0-1.61,1.305-2.914,2.915-2.914C660.724,37.918,662.028,39.223,662.028,40.833z"/>
			<path style="fill:#FFFFFF;" d="M683.612,40.833c0,1.61-1.305,2.914-2.914,2.914c-1.61,0-2.915-1.305-2.915-2.914
				c0-1.61,1.305-2.914,2.915-2.914C682.307,37.918,683.612,39.223,683.612,40.833z"/>
			<path style="fill:#FFFFFF;" d="M705.196,40.833c0,1.61-1.305,2.914-2.914,2.914c-1.609,0-2.914-1.305-2.914-2.914
				c0-1.61,1.305-2.914,2.914-2.914C703.891,37.918,705.196,39.223,705.196,40.833z"/>
			<path style="fill:#FFFFFF;" d="M726.779,40.833c0,1.61-1.305,2.914-2.914,2.914c-1.61,0-2.914-1.305-2.914-2.914
				c0-1.61,1.305-2.914,2.914-2.914C725.474,37.918,726.779,39.223,726.779,40.833z"/>
			<path style="fill:#FFFFFF;" d="M618.861,58.942c0,1.61-1.305,2.915-2.914,2.915c-1.61,0-2.914-1.305-2.914-2.915
				c0-1.61,1.305-2.914,2.914-2.914C617.556,56.028,618.861,57.333,618.861,58.942z"/>
			<path style="fill:#FFFFFF;" d="M640.445,58.942c0,1.61-1.305,2.915-2.914,2.915c-1.61,0-2.914-1.305-2.914-2.915
				c0-1.61,1.305-2.914,2.914-2.914C639.14,56.028,640.445,57.333,640.445,58.942z"/>
			<path style="fill:#FFFFFF;" d="M662.028,58.942c0,1.61-1.305,2.915-2.914,2.915c-1.61,0-2.915-1.305-2.915-2.915
				c0-1.61,1.305-2.914,2.915-2.914C660.724,56.028,662.028,57.333,662.028,58.942z"/>
			<path style="fill:#FFFFFF;" d="M683.612,58.942c0,1.61-1.305,2.915-2.914,2.915c-1.61,0-2.915-1.305-2.915-2.915
				c0-1.61,1.305-2.914,2.915-2.914C682.307,56.028,683.612,57.333,683.612,58.942z"/>
			<path style="fill:#FFFFFF;" d="M705.196,58.942c0,1.61-1.305,2.915-2.914,2.915c-1.609,0-2.914-1.305-2.914-2.915
				c0-1.61,1.305-2.914,2.914-2.914C703.891,56.028,705.196,57.333,705.196,58.942z"/>
			<path style="fill:#FFFFFF;" d="M726.779,58.942c0,1.61-1.305,2.915-2.914,2.915c-1.61,0-2.914-1.305-2.914-2.915
				c0-1.61,1.305-2.914,2.914-2.914C725.474,56.028,726.779,57.333,726.779,58.942z"/>
		</g>
		<g>
			<path style="fill:#FFFFFF;" d="M27.26,382.051c0,1.609-1.305,2.914-2.914,2.914c-1.61,0-2.914-1.305-2.914-2.914
				c0-1.61,1.305-2.915,2.914-2.915C25.956,379.137,27.26,380.441,27.26,382.051z"/>
			<path style="fill:#FFFFFF;" d="M48.844,382.051c0,1.609-1.305,2.914-2.915,2.914s-2.915-1.305-2.915-2.914
				c0-1.61,1.305-2.915,2.915-2.915S48.844,380.441,48.844,382.051z"/>
			<path style="fill:#FFFFFF;" d="M70.428,382.051c0,1.609-1.305,2.914-2.914,2.914c-1.61,0-2.915-1.305-2.915-2.914
				c0-1.61,1.305-2.915,2.915-2.915C69.123,379.137,70.428,380.441,70.428,382.051z"/>
			<path style="fill:#FFFFFF;" d="M92.011,382.051c0,1.609-1.305,2.914-2.914,2.914c-1.61,0-2.915-1.305-2.915-2.914
				c0-1.61,1.305-2.915,2.915-2.915C90.706,379.137,92.011,380.441,92.011,382.051z"/>
			<path style="fill:#FFFFFF;" d="M113.595,382.051c0,1.609-1.305,2.914-2.914,2.914c-1.609,0-2.914-1.305-2.914-2.914
				c0-1.61,1.305-2.915,2.914-2.915C112.29,379.137,113.595,380.441,113.595,382.051z"/>
			<path style="fill:#FFFFFF;" d="M135.179,382.051c0,1.609-1.305,2.914-2.914,2.914c-1.61,0-2.915-1.305-2.915-2.914
				c0-1.61,1.305-2.915,2.915-2.915C133.874,379.137,135.179,380.441,135.179,382.051z"/>
			<path style="fill:#FFFFFF;" d="M27.26,400.161c0,1.61-1.305,2.914-2.914,2.914c-1.61,0-2.914-1.305-2.914-2.914
				c0-1.61,1.305-2.915,2.914-2.915C25.956,397.246,27.26,398.551,27.26,400.161z"/>
			<path style="fill:#FFFFFF;" d="M48.844,400.161c0,1.61-1.305,2.914-2.915,2.914s-2.915-1.305-2.915-2.914
				c0-1.61,1.305-2.915,2.915-2.915S48.844,398.551,48.844,400.161z"/>
			<path style="fill:#FFFFFF;" d="M70.428,400.161c0,1.61-1.305,2.914-2.914,2.914c-1.61,0-2.915-1.305-2.915-2.914
				c0-1.61,1.305-2.915,2.915-2.915C69.123,397.246,70.428,398.551,70.428,400.161z"/>
			<path style="fill:#FFFFFF;" d="M92.011,400.161c0,1.61-1.305,2.914-2.914,2.914c-1.61,0-2.915-1.305-2.915-2.914
				c0-1.61,1.305-2.915,2.915-2.915C90.706,397.246,92.011,398.551,92.011,400.161z"/>
			<path style="fill:#FFFFFF;" d="M113.595,400.161c0,1.61-1.305,2.914-2.914,2.914c-1.609,0-2.914-1.305-2.914-2.914
				c0-1.61,1.305-2.915,2.914-2.915C112.29,397.246,113.595,398.551,113.595,400.161z"/>
			<path style="fill:#FFFFFF;" d="M135.179,400.161c0,1.61-1.305,2.914-2.914,2.914c-1.61,0-2.915-1.305-2.915-2.914
				c0-1.61,1.305-2.915,2.915-2.915C133.874,397.246,135.179,398.551,135.179,400.161z"/>
			<path style="fill:#FFFFFF;" d="M27.26,418.271c0,1.61-1.305,2.915-2.914,2.915c-1.61,0-2.914-1.305-2.914-2.915
				c0-1.609,1.305-2.914,2.914-2.914C25.956,415.356,27.26,416.661,27.26,418.271z"/>
			<path style="fill:#FFFFFF;" d="M48.844,418.271c0,1.61-1.305,2.915-2.915,2.915s-2.915-1.305-2.915-2.915
				c0-1.609,1.305-2.914,2.915-2.914S48.844,416.661,48.844,418.271z"/>
			<path style="fill:#FFFFFF;" d="M70.428,418.271c0,1.61-1.305,2.915-2.914,2.915c-1.61,0-2.915-1.305-2.915-2.915
				c0-1.609,1.305-2.914,2.915-2.914C69.123,415.356,70.428,416.661,70.428,418.271z"/>
			<path style="fill:#FFFFFF;" d="M92.011,418.271c0,1.61-1.305,2.915-2.914,2.915c-1.61,0-2.915-1.305-2.915-2.915
				c0-1.609,1.305-2.914,2.915-2.914C90.706,415.356,92.011,416.661,92.011,418.271z"/>
			<path style="fill:#FFFFFF;" d="M113.595,418.271c0,1.61-1.305,2.915-2.914,2.915c-1.609,0-2.914-1.305-2.914-2.915
				c0-1.609,1.305-2.914,2.914-2.914C112.29,415.356,113.595,416.661,113.595,418.271z"/>
			<path style="fill:#FFFFFF;" d="M135.179,418.271c0,1.61-1.305,2.915-2.914,2.915c-1.61,0-2.915-1.305-2.915-2.915
				c0-1.609,1.305-2.914,2.915-2.914C133.874,415.356,135.179,416.661,135.179,418.271z"/>
		</g>
	</g>
	<line style="fill:none;stroke:#39393B;stroke-miterlimit:10;" x1="0" y1="442.213" x2="750" y2="442.213"/>
	<g>
		<g>
			<g>
				<g>
					<g>
						<path style="fill:#169B5B;" d="M683.233,332.268c0,0-25.091-4.96-32.093-22.465c-7.002-17.505,18.599-30.634,32.093-21.234
							C697.67,298.625,683.233,332.268,683.233,332.268z"/>
					</g>
				</g>
				<g>
					<g>
						<path style="fill:#39393B;" d="M698.153,378.256c-0.221,0-0.415-0.162-0.449-0.388c-2.404-16.259-12.092-39.652-19.797-56.413
							c-8.354-18.176-16.239-32.681-16.318-32.826c-0.12-0.22-0.039-0.496,0.182-0.616c0.22-0.12,0.496-0.038,0.616,0.181
							c0.079,0.145,7.978,14.677,16.345,32.881c7.729,16.815,17.451,40.295,19.87,56.66c0.037,0.248-0.135,0.479-0.383,0.516
							C698.198,378.255,698.175,378.256,698.153,378.256z"/>
					</g>
				</g>
			</g>
			<g>
				<g>
					<path style="fill:#39393B;" d="M682.292,330.574c-0.162,0-0.318-0.087-0.4-0.239c-10.913-20.327-28.635-35.074-28.813-35.22
						c-0.194-0.159-0.221-0.446-0.062-0.639c0.159-0.193,0.446-0.221,0.639-0.061c0.179,0.147,18.035,15.003,29.035,35.491
						c0.119,0.221,0.036,0.496-0.185,0.615C682.438,330.556,682.364,330.574,682.292,330.574z"/>
				</g>
			</g>
			<g>
				<g>
					<path style="fill:#39393B;" d="M682.787,332.029c-0.129,0-0.256-0.054-0.346-0.16c-7.959-9.368-16.11-15.192-21.546-18.428
						c-5.893-3.508-9.955-4.815-9.995-4.828c-0.239-0.076-0.371-0.331-0.295-0.57c0.076-0.239,0.331-0.371,0.57-0.296
						c0.168,0.053,4.18,1.343,10.155,4.896c5.503,3.272,13.753,9.162,21.804,18.639c0.162,0.191,0.139,0.478-0.052,0.64
						C682.996,331.994,682.891,332.029,682.787,332.029z"/>
				</g>
			</g>
			<g>
				<g>
					<path style="fill:#39393B;" d="M680.579,326.701c-0.189,0-0.365-0.119-0.43-0.307c-6.118-17.954-3.867-39.775-3.844-39.993
						c0.027-0.249,0.249-0.429,0.5-0.403c0.249,0.027,0.43,0.251,0.403,0.5c-0.023,0.216-2.251,21.842,3.8,39.603
						c0.081,0.238-0.046,0.495-0.283,0.576C680.677,326.693,680.628,326.701,680.579,326.701z"/>
				</g>
			</g>
			<g>
				<g>
					<path style="fill:#39393B;" d="M682.118,330.254c-0.218,0-0.411-0.158-0.448-0.38c-1.872-11.365-0.433-20.636,1.103-26.412
						c1.669-6.273,3.754-9.805,3.842-9.952c0.128-0.215,0.407-0.285,0.622-0.157c0.215,0.129,0.286,0.407,0.157,0.622
						c-0.021,0.035-2.119,3.596-3.754,9.757c-1.507,5.683-2.917,14.806-1.075,25.994c0.041,0.247-0.127,0.481-0.374,0.522
						C682.167,330.253,682.143,330.254,682.118,330.254z"/>
				</g>
			</g>
		</g>
		<g>
			<g>
				<g>
					<g>
						<path style="fill:#EBB12B;" d="M707.818,315.291c0,0,23.185-3.171,30.529-18.78c7.343-15.609-15.329-28.987-28.162-21.132
							C696.455,283.781,707.818,315.291,707.818,315.291z"/>
					</g>
				</g>
				<g>
					<g>
						<path style="fill:#39393B;" d="M699.023,351.823c-0.001,0-0.003,0-0.005,0c-0.229-0.003-0.413-0.191-0.411-0.42
							c0.091-7.661,1.762-16.388,4.966-25.939c2.559-7.628,6.098-15.798,10.516-24.283c7.521-14.441,15.094-24.935,15.17-25.039
							c0.135-0.186,0.395-0.227,0.58-0.092c0.186,0.135,0.227,0.394,0.093,0.58c-0.076,0.104-7.619,10.557-15.112,24.946
							c-6.905,13.26-15.179,32.671-15.383,49.837C699.436,351.641,699.25,351.823,699.023,351.823z"/>
					</g>
				</g>
			</g>
			<g>
				<g>
					<path style="fill:#39393B;" d="M708.794,313.795c-0.074,0-0.15-0.02-0.217-0.062c-0.195-0.12-0.256-0.376-0.136-0.572
						c11.156-18.118,28.27-30.719,28.441-30.844c0.185-0.135,0.445-0.095,0.58,0.091c0.135,0.185,0.095,0.445-0.091,0.581
						c-0.17,0.124-17.156,12.634-28.224,30.608C709.07,313.725,708.934,313.795,708.794,313.795z"/>
				</g>
			</g>
			<g>
				<g>
					<path style="fill:#39393B;" d="M708.263,315.098c-0.103,0-0.207-0.038-0.287-0.115c-0.166-0.159-0.172-0.422-0.013-0.587
						c7.866-8.219,15.72-13.152,20.924-15.843c5.65-2.922,9.384-3.882,9.54-3.922c0.221-0.056,0.448,0.078,0.504,0.301
						c0.056,0.222-0.078,0.448-0.301,0.505c-0.038,0.009-3.819,0.984-9.391,3.868c-5.141,2.661-12.9,7.539-20.677,15.665
						C708.482,315.055,708.373,315.098,708.263,315.098z"/>
				</g>
			</g>
			<g>
				<g>
					<path style="fill:#39393B;" d="M710.568,310.35c-0.052,0-0.105-0.01-0.157-0.031c-0.212-0.086-0.314-0.329-0.227-0.542
						c6.489-15.894,5.625-35.767,5.616-35.966c-0.011-0.229,0.166-0.424,0.395-0.435c0.226-0.012,0.424,0.166,0.435,0.395
						c0.009,0.201,0.883,20.252-5.676,36.319C710.887,310.253,710.732,310.35,710.568,310.35z"/>
				</g>
			</g>
			<g>
				<g>
					<path style="fill:#39393B;" d="M708.97,313.513c-0.03,0-0.061-0.004-0.092-0.01c-0.224-0.051-0.364-0.273-0.314-0.497
						c2.289-10.119,1.495-18.528,0.426-23.8c-1.159-5.716-2.883-9.082-2.9-9.115c-0.106-0.204-0.026-0.454,0.177-0.56
						c0.204-0.105,0.454-0.026,0.56,0.177c0.072,0.139,1.785,3.478,2.97,9.298c1.09,5.359,1.902,13.904-0.423,24.184
						C709.331,313.383,709.16,313.513,708.97,313.513z"/>
				</g>
			</g>
		</g>
		<g>
			<g>
				<g>
					<g>
						<path style="fill:#169B5B;" d="M698.99,265.445c0,0-26.546-17.184-26.574-40.495c-0.028-23.311,35.387-26.668,46.581-9.695
							C730.973,233.415,698.99,265.445,698.99,265.445z"/>
					</g>
				</g>
				<g>
					<g>
						<path style="fill:#39393B;" d="M695.279,423.029c-0.043,0-0.086-0.005-0.13-0.015c-0.302-0.072-0.488-0.374-0.417-0.676
							c4.683-19.774,4.266-148.972,3.092-171.75c-1.274-24.701-3.688-44.97-3.713-45.172c-0.037-0.308,0.183-0.587,0.49-0.624
							c0.305-0.035,0.588,0.183,0.624,0.49c0.024,0.202,2.443,20.51,3.719,45.248c1.178,22.851,1.594,152.164-3.12,172.067
							C695.764,422.855,695.534,423.029,695.279,423.029z"/>
					</g>
				</g>
			</g>
			<g>
				<g>
					<path style="fill:#39393B;" d="M698.891,263.108c-0.282,0-0.525-0.212-0.557-0.498c-3.227-28.342-16.83-53.393-16.967-53.643
						c-0.149-0.272-0.05-0.613,0.222-0.762c0.271-0.15,0.613-0.05,0.762,0.222c0.138,0.252,13.845,25.488,17.098,54.056
						c0.035,0.308-0.186,0.586-0.494,0.621C698.933,263.107,698.912,263.108,698.891,263.108z"/>
				</g>
			</g>
			<g>
				<g>
					<path style="fill:#39393B;" d="M698.795,265.007c-0.234,0-0.453-0.148-0.532-0.383c-4.852-14.404-11.547-24.824-16.309-31.03
						c-5.162-6.726-9.229-10.088-9.269-10.122c-0.24-0.196-0.275-0.55-0.079-0.79c0.196-0.24,0.55-0.275,0.79-0.079
						c0.169,0.138,4.186,3.455,9.422,10.272c4.822,6.278,11.601,16.82,16.508,31.389c0.099,0.294-0.059,0.612-0.353,0.711
						C698.914,264.997,698.854,265.007,698.795,265.007z"/>
				</g>
			</g>
			<g>
				<g>
					<path style="fill:#39393B;" d="M698.699,257.875c-0.01,0-0.019,0-0.029-0.001c-0.309-0.016-0.548-0.279-0.532-0.589
						c1.194-23.422,13.769-47.452,13.896-47.692c0.145-0.274,0.485-0.379,0.758-0.234c0.274,0.145,0.379,0.484,0.234,0.758
						c-0.126,0.238-12.586,24.056-13.767,47.225C699.244,257.642,698.996,257.875,698.699,257.875z"/>
				</g>
			</g>
			<g>
				<g>
					<path style="fill:#39393B;" d="M698.84,262.662c-0.04,0-0.08-0.004-0.121-0.013c-0.303-0.066-0.495-0.366-0.428-0.668
						c3.053-13.909,8.968-23.977,13.393-29.973c4.805-6.511,8.832-9.683,9.001-9.814c0.244-0.19,0.597-0.147,0.788,0.097
						c0.191,0.245,0.147,0.597-0.097,0.788c-0.041,0.032-4.099,3.233-8.815,9.633c-4.35,5.903-10.167,15.814-13.173,29.51
						C699.33,262.483,699.098,262.662,698.84,262.662z"/>
				</g>
			</g>
		</g>
		<g>
			<g>
				<path style="fill:#39393B;" d="M730.22,414.384l-0.926,2.455l-0.585,1.556l-1.679,4.456l-0.587,1.556l-1.724,4.577l-0.584,1.554
					l-7.395,19.636h-40.401l-7.395-19.636l-0.584-1.554l-1.724-4.577l-0.587-1.556l-1.679-4.456l-0.584-1.556l-0.926-2.455
					c-0.635-1.684,0.608-3.48,2.407-3.48h62.546C729.609,410.904,730.852,412.7,730.22,414.384z"/>
			</g>
		</g>
		<g>
			<g>
				<g>
					<polygon style="fill:#EDEEF1;" points="729.294,416.839 728.709,418.395 664.37,418.395 663.785,416.839 					"/>
				</g>
			</g>
			<g>
				<g>
					<polygon style="fill:#EDEEF1;" points="727.031,422.852 726.444,424.408 666.635,424.408 666.048,422.852 					"/>
				</g>
			</g>
			<g>
				<g>
					<polygon style="fill:#EDEEF1;" points="724.72,428.984 724.135,430.538 668.944,430.538 668.36,428.984 					"/>
				</g>
			</g>
		</g>
	</g>
	<g>
		<polygon style="fill:#169B5B;" points="352.682,290.086 354.497,294.951 359.618,294.09 356.312,298.095 359.618,302.099 
			354.497,301.238 352.682,306.103 350.867,301.238 345.747,302.099 349.053,298.095 345.747,294.09 350.867,294.951 		"/>
		<polygon style="fill:#EBB12B;" points="666.416,164.926 668.836,171.413 675.664,170.266 671.256,175.605 675.664,180.944 
			668.836,179.796 666.416,186.283 663.996,179.796 657.168,180.944 661.576,175.605 657.168,170.266 663.996,171.413 		"/>
		<polygon style="fill:#DF615C;" points="497.067,310.352 499.486,316.839 506.314,315.691 501.906,321.03 506.314,326.369 
			499.486,325.221 497.067,331.708 494.647,325.221 487.819,326.369 492.227,321.03 487.819,315.691 494.647,316.839 		"/>
	</g>
	<g>
		<g>
			<g>
				<defs>
					<circle id="SVGID_1_" cx="540.998" cy="207.024" r="24.634"/>
				</defs>
				<clipPath id="SVGID_00000070086629627759804790000015469181447386942350_">
					<use xlink:href="#SVGID_1_"  style="overflow:visible;"/>
				</clipPath>
				<g style="clip-path:url(#SVGID_00000070086629627759804790000015469181447386942350_);">
					<rect x="514.42" y="181.565" style="fill:#FFFFFF;" width="72.206" height="50.917"/>
					<g>
						<defs>
							
								<rect id="SVGID_00000057113670752985181330000011152667426112155550_" x="514.42" y="181.565" width="72.206" height="50.917"/>
						</defs>
						<clipPath id="SVGID_00000031175539082571274490000015983210692094795669_">
							<use xlink:href="#SVGID_00000057113670752985181330000011152667426112155550_"  style="overflow:visible;"/>
						</clipPath>
						<g style="clip-path:url(#SVGID_00000031175539082571274490000015983210692094795669_);">
							<g>
								<rect x="511.164" y="229.221" style="fill:#A92F4B;" width="84.911" height="3.261"/>
								<rect x="511.164" y="221.279" style="fill:#A92F4B;" width="84.911" height="3.261"/>
								<rect x="511.164" y="213.336" style="fill:#A92F4B;" width="84.911" height="3.261"/>
								<rect x="511.164" y="205.393" style="fill:#A92F4B;" width="84.911" height="3.261"/>
								<rect x="511.164" y="197.451" style="fill:#A92F4B;" width="84.911" height="3.261"/>
								<rect x="511.164" y="189.508" style="fill:#A92F4B;" width="84.911" height="3.261"/>
								<rect x="511.164" y="181.565" style="fill:#A92F4B;" width="84.911" height="3.261"/>
							</g>
							<g>
								<rect x="511.164" y="179.547" style="fill:#084FC7;" width="38.524" height="29.107"/>
								<g>
									<g>
										<polygon style="fill:#FFFFFF;" points="517.668,184.24 518.074,185.207 519.119,185.295 518.326,185.98 518.565,187.001 
											517.668,186.458 516.771,187.001 517.01,185.98 516.216,185.295 517.261,185.207 										"/>
										<polygon style="fill:#FFFFFF;" points="523.38,184.24 523.787,185.207 524.832,185.295 524.039,185.98 524.278,187.001 
											523.38,186.458 522.483,187.001 522.723,185.98 521.929,185.295 522.974,185.207 										"/>
										<polygon style="fill:#FFFFFF;" points="529.093,184.24 529.5,185.207 530.545,185.295 529.751,185.98 529.991,187.001 
											529.093,186.458 528.196,187.001 528.435,185.98 527.642,185.295 528.687,185.207 										"/>
										<polygon style="fill:#FFFFFF;" points="534.806,184.24 535.213,185.207 536.258,185.295 535.464,185.98 535.703,187.001 
											534.806,186.458 533.909,187.001 534.148,185.98 533.354,185.295 534.4,185.207 										"/>
										<polygon style="fill:#FFFFFF;" points="540.519,184.24 540.926,185.207 541.971,185.295 541.177,185.98 541.416,187.001 
											540.519,186.458 539.622,187.001 539.861,185.98 539.067,185.295 540.112,185.207 										"/>
										<polygon style="fill:#FFFFFF;" points="546.082,184.24 546.489,185.207 547.534,185.295 546.74,185.98 546.979,187.001 
											546.082,186.458 545.185,187.001 545.424,185.98 544.63,185.295 545.675,185.207 										"/>
									</g>
									<g>
										<polygon style="fill:#FFFFFF;" points="517.668,188.838 518.074,189.805 519.119,189.893 518.326,190.578 
											518.565,191.599 517.668,191.056 516.771,191.599 517.01,190.578 516.216,189.893 517.261,189.805 										"/>
										<polygon style="fill:#FFFFFF;" points="523.38,188.838 523.787,189.805 524.832,189.893 524.038,190.578 524.278,191.599 
											523.38,191.056 522.483,191.599 522.723,190.578 521.929,189.893 522.974,189.805 										"/>
										<polygon style="fill:#FFFFFF;" points="529.093,188.838 529.5,189.805 530.545,189.893 529.751,190.578 529.991,191.599 
											529.093,191.056 528.196,191.599 528.435,190.578 527.642,189.893 528.687,189.805 										"/>
										<polygon style="fill:#FFFFFF;" points="534.806,188.838 535.213,189.805 536.258,189.893 535.464,190.578 
											535.703,191.599 534.806,191.056 533.909,191.599 534.148,190.578 533.354,189.893 534.4,189.805 										"/>
										<polygon style="fill:#FFFFFF;" points="540.519,188.838 540.926,189.805 541.971,189.893 541.177,190.578 
											541.416,191.599 540.519,191.056 539.622,191.599 539.861,190.578 539.067,189.893 540.112,189.805 										"/>
										<polygon style="fill:#FFFFFF;" points="546.082,188.838 546.489,189.805 547.534,189.893 546.74,190.578 546.979,191.599 
											546.082,191.056 545.185,191.599 545.424,190.578 544.63,189.893 545.675,189.805 										"/>
									</g>
									<g>
										<polygon style="fill:#FFFFFF;" points="517.668,193.436 518.074,194.403 519.119,194.491 518.326,195.176 
											518.565,196.197 517.668,195.654 516.771,196.197 517.01,195.176 516.216,194.491 517.261,194.403 										"/>
										<polygon style="fill:#FFFFFF;" points="523.38,193.436 523.787,194.403 524.832,194.491 524.038,195.176 524.278,196.197 
											523.38,195.654 522.483,196.197 522.723,195.176 521.929,194.491 522.974,194.403 										"/>
										<polygon style="fill:#FFFFFF;" points="529.093,193.436 529.5,194.403 530.545,194.491 529.751,195.176 529.99,196.197 
											529.093,195.654 528.196,196.197 528.435,195.176 527.642,194.491 528.687,194.403 										"/>
										<polygon style="fill:#FFFFFF;" points="534.806,193.436 535.213,194.403 536.258,194.491 535.464,195.176 
											535.703,196.197 534.806,195.654 533.909,196.197 534.148,195.176 533.354,194.491 534.399,194.403 										"/>
										<polygon style="fill:#FFFFFF;" points="540.519,193.436 540.926,194.403 541.971,194.491 541.177,195.176 
											541.416,196.197 540.519,195.654 539.622,196.197 539.861,195.176 539.067,194.491 540.112,194.403 										"/>
										<polygon style="fill:#FFFFFF;" points="546.082,193.436 546.489,194.403 547.534,194.491 546.74,195.176 546.979,196.197 
											546.082,195.654 545.185,196.197 545.424,195.176 544.63,194.491 545.675,194.403 										"/>
									</g>
									<g>
										<polygon style="fill:#FFFFFF;" points="517.668,198.034 518.074,199.001 519.119,199.089 518.326,199.774 
											518.565,200.795 517.668,200.252 516.771,200.795 517.01,199.774 516.216,199.089 517.261,199.001 										"/>
										<polygon style="fill:#FFFFFF;" points="523.38,198.034 523.787,199.001 524.832,199.089 524.039,199.774 524.278,200.795 
											523.38,200.252 522.483,200.795 522.723,199.774 521.929,199.089 522.974,199.001 										"/>
										<polygon style="fill:#FFFFFF;" points="529.093,198.034 529.5,199.001 530.545,199.089 529.751,199.774 529.991,200.795 
											529.093,200.252 528.196,200.795 528.435,199.774 527.642,199.089 528.687,199.001 										"/>
										<polygon style="fill:#FFFFFF;" points="534.806,198.034 535.213,199.001 536.258,199.089 535.464,199.774 
											535.703,200.795 534.806,200.252 533.909,200.795 534.148,199.774 533.354,199.089 534.4,199.001 										"/>
										<polygon style="fill:#FFFFFF;" points="540.519,198.034 540.926,199.001 541.971,199.089 541.177,199.774 
											541.416,200.795 540.519,200.252 539.622,200.795 539.861,199.774 539.067,199.089 540.112,199.001 										"/>
										<polygon style="fill:#FFFFFF;" points="546.082,198.034 546.489,199.001 547.534,199.089 546.74,199.774 546.979,200.795 
											546.082,200.252 545.185,200.795 545.424,199.774 544.63,199.089 545.675,199.001 										"/>
									</g>
									<g>
										<polygon style="fill:#FFFFFF;" points="517.668,202.632 518.074,203.599 519.119,203.687 518.326,204.372 
											518.565,205.393 517.668,204.85 516.771,205.393 517.01,204.372 516.216,203.687 517.261,203.599 										"/>
										<polygon style="fill:#FFFFFF;" points="523.38,202.632 523.787,203.599 524.832,203.687 524.038,204.372 524.278,205.393 
											523.38,204.85 522.483,205.393 522.723,204.372 521.929,203.687 522.974,203.599 										"/>
										<polygon style="fill:#FFFFFF;" points="529.093,202.632 529.5,203.599 530.545,203.687 529.751,204.372 529.991,205.393 
											529.093,204.85 528.196,205.393 528.435,204.372 527.642,203.687 528.687,203.599 										"/>
										<polygon style="fill:#FFFFFF;" points="534.806,202.632 535.213,203.599 536.258,203.687 535.464,204.372 
											535.703,205.393 534.806,204.85 533.909,205.393 534.148,204.372 533.354,203.687 534.4,203.599 										"/>
										<polygon style="fill:#FFFFFF;" points="540.519,202.632 540.926,203.599 541.971,203.687 541.177,204.372 
											541.416,205.393 540.519,204.85 539.622,205.393 539.861,204.372 539.067,203.687 540.112,203.599 										"/>
										<polygon style="fill:#FFFFFF;" points="546.082,202.632 546.489,203.599 547.534,203.687 546.74,204.372 546.979,205.393 
											546.082,204.85 545.185,205.393 545.424,204.372 544.63,203.687 545.675,203.599 										"/>
									</g>
								</g>
							</g>
						</g>
					</g>
				</g>
			</g>
			
				<ellipse transform="matrix(0.9217 -0.388 0.388 0.9217 -45.5713 237.6102)" style="fill:#DCDEE2;" cx="565.632" cy="231.658" rx="22.53" ry="22.53"/>
			<g>
				<defs>
					
						<ellipse id="SVGID_00000001636325397496830440000016734445791156806076_" transform="matrix(0.8746 -0.4848 0.4848 0.8746 -41.3923 303.2565)" cx="565.632" cy="231.658" rx="19.92" ry="19.92"/>
				</defs>
				<clipPath id="SVGID_00000034811997777918567270000005904394320745108119_">
					<use xlink:href="#SVGID_00000001636325397496830440000016734445791156806076_"  style="overflow:visible;"/>
				</clipPath>
				<g style="clip-path:url(#SVGID_00000034811997777918567270000005904394320745108119_);">
					
						<rect x="537.503" y="211.822" transform="matrix(-1 0.0042 -0.0042 -1 1132.2365 460.9243)" style="fill:#084FC7;" width="56.257" height="39.671"/>
					<g>
						<defs>
							<polyline id="SVGID_00000171715591334038163140000014870961573626216113_" points="593.844,251.374 593.676,211.704 
								537.42,211.941 537.587,251.612 							"/>
						</defs>
						<clipPath id="SVGID_00000114786256110088172870000003784717057192176319_">
							<use xlink:href="#SVGID_00000171715591334038163140000014870961573626216113_"  style="overflow:visible;"/>
						</clipPath>
						<g style="clip-path:url(#SVGID_00000114786256110088172870000003784717057192176319_);">
							<g>
								
									<rect x="564.094" y="194.402" transform="matrix(-0.5622 -0.827 0.827 -0.5622 692.7889 830.7542)" style="fill:#FFFFFF;" width="4.387" height="75.199"/>
								
									<rect x="565.581" y="194.402" transform="matrix(-0.5622 -0.827 0.827 -0.5622 692.7563 830.7612)" style="fill:#A92F4B;" width="1.413" height="75.199"/>
							</g>
							<g>
								
									<rect x="563.44" y="194.405" transform="matrix(0.5552 -0.8317 0.8317 0.5552 58.6378 573.652)" style="fill:#FFFFFF;" width="4.387" height="75.199"/>
								
									<rect x="564.926" y="194.405" transform="matrix(0.5552 -0.8317 0.8317 0.5552 58.6421 573.6583)" style="fill:#A92F4B;" width="1.414" height="75.199"/>
							</g>
							<g>
								
									<rect x="560.707" y="201.769" transform="matrix(-0.0042 -1 1 -0.0042 336.3598 798.2606)" style="fill:#FFFFFF;" width="9.85" height="59.777"/>
								
									<rect x="560.707" y="201.769" transform="matrix(-1 0.0042 -0.0042 -1 1132.2366 460.9243)" style="fill:#FFFFFF;" width="9.85" height="59.777"/>
								
									<rect x="563.169" y="201.769" transform="matrix(-1 0.0042 -0.0042 -1 1132.2366 460.9243)" style="fill:#A92F4B;" width="4.925" height="59.777"/>
								
									<rect x="563.169" y="201.769" transform="matrix(-0.0042 -1 1 -0.0042 336.3534 798.258)" style="fill:#A92F4B;" width="4.925" height="59.777"/>
							</g>
						</g>
					</g>
				</g>
			</g>
		</g>
		<g>
			<path style="fill:#DF615C;" d="M502.267,237.789c2.195-3.163,5.853-5.235,9.995-5.235h37.122c3.872,0,7.321,1.81,9.547,4.63
				c1.635,2.07,2.61,4.685,2.61,7.527v16.083c0,3.922-1.858,7.411-4.741,9.634c-2.052,1.582-4.624,2.523-7.416,2.523h-10.702v16.768
				l-16.768-16.768h-9.652c-2.956,0-5.665-1.055-7.772-2.809c-2.679-2.23-4.385-5.59-4.385-9.349v-16.083
				C500.105,242.139,500.904,239.754,502.267,237.789z"/>
		</g>
	</g>
	<g>
		<g>
			<g>
				<g>
					<g>
						<ellipse style="fill:#DCDEE2;" cx="375" cy="52.957" rx="37.244" ry="36.781"/>
					</g>
				</g>
				<g>
					<g>
						<g>
							<ellipse style="fill:#FFFFFF;" cx="375" cy="52.957" rx="30.278" ry="29.902"/>
						</g>
					</g>
				</g>
			</g>
			<g>
				<g>
					<path style="fill:#DCDEE2;" d="M375.001,56.068c-0.234,0-0.462-0.107-0.608-0.302l-14.853-19.749
						c-0.249-0.332-0.179-0.8,0.156-1.046c0.335-0.247,0.81-0.178,1.06,0.155l14.493,19.27l16.471-7.139
						c0.383-0.166,0.83,0.006,0.998,0.384c0.168,0.378-0.006,0.82-0.389,0.986l-17.024,7.379
						C375.206,56.047,375.103,56.068,375.001,56.068z"/>
				</g>
			</g>
		</g>
		<g>
			<g>
				<polygon style="fill:#EDEEF1;" points="334.952,326.973 306.661,339.341 298.446,332.061 				"/>
				<polygon style="fill:#EDEEF1;" points="334.952,326.973 310.775,343.55 322.259,354.426 				"/>
			</g>
			<g>
				<polygon style="fill:#DCDEE2;" points="315.208,347.748 301.72,351.414 306.661,339.341 334.952,326.973 310.775,343.55 				"/>
				<polyline style="fill:none;stroke:#EDEEF1;stroke-miterlimit:10;" points="310.775,343.55 301.72,351.414 306.661,339.341 				
					"/>
			</g>
		</g>
		<g>
			<g>
				<polygon style="fill:#EDEEF1;" points="604.404,198.669 637.163,212.991 646.675,204.561 				"/>
				<polygon style="fill:#EDEEF1;" points="604.404,198.669 632.399,217.864 619.102,230.458 				"/>
			</g>
			<g>
				<polygon style="fill:#DCDEE2;" points="627.266,222.726 642.885,226.97 637.163,212.991 604.404,198.669 632.399,217.864 				
					"/>
				<polyline style="fill:none;stroke:#EDEEF1;stroke-miterlimit:10;" points="632.399,217.864 642.885,226.97 637.163,212.991 				
					"/>
			</g>
		</g>
		<g>
			<path style="fill:#DCDEE2;" d="M14.459,25.266c2.195-3.163,5.853-5.235,9.995-5.235h37.122c3.872,0,7.321,1.81,9.547,4.63
				c1.635,2.07,2.61,4.685,2.61,7.527v16.083c0,3.922-1.858,7.411-4.741,9.634c-2.052,1.582-4.624,2.523-7.416,2.523H50.874v16.768
				L34.106,60.429h-9.652c-2.956,0-5.665-1.055-7.772-2.809c-2.679-2.23-4.385-5.59-4.385-9.348V32.189
				C12.297,29.617,13.096,27.231,14.459,25.266z"/>
			<g>
				<path style="fill:#FFFFFF;" d="M54.012,41.16c0,1.631,1.322,2.953,2.953,2.953c1.631,0,2.953-1.322,2.953-2.953
					c0-1.631-1.322-2.953-2.953-2.953C55.334,38.207,54.012,39.529,54.012,41.16z"/>
				<path style="fill:#FFFFFF;" d="M40.075,41.16c0,1.631,1.322,2.953,2.953,2.953c1.631,0,2.953-1.322,2.953-2.953
					c0-1.631-1.322-2.953-2.953-2.953C41.397,38.207,40.075,39.529,40.075,41.16z"/>
				<path style="fill:#FFFFFF;" d="M26.137,41.16c0,1.631,1.322,2.953,2.953,2.953c1.631,0,2.953-1.322,2.953-2.953
					c0-1.631-1.322-2.953-2.953-2.953C27.459,38.207,26.137,39.529,26.137,41.16z"/>
			</g>
		</g>
	</g>
	<g>
		<g>
			<g>
				<g style="opacity:0.15;">
					<g>
						<ellipse style="fill:#39393B;" cx="505.037" cy="468.147" rx="224.009" ry="17.623"/>
					</g>
				</g>
				<g>
					<path style="fill:#EBB12B;" d="M389.323,388.129c0,0-57.829-3.866-74.285,14.976c-16.456,18.842-10.814,49.603,40.904,55.756
						c51.717,6.152,57.829,3.461,57.829,3.461s81.446,4.643,91.79-31.117C515.905,395.443,469.25,378.921,389.323,388.129z"/>
					<g>
						<g>
							<polygon style="fill:#39393B;" points="377.037,387.766 446.085,387.766 431.323,421.344 389.055,422.639 							"/>
							<g>
								<g>
									<path style="fill:#39393B;" d="M447.81,457.972c0,0,7.368,3.038,1.838,11.228c-5.118,7.578-9.136,13.049-27.856-3.134
										L447.81,457.972z"/>
									<polygon style="fill:#F9CABB;" points="402.952,434.207 420.345,451.283 414.377,459.889 392.506,441.965 									"/>
									<g>
										<defs>
											<path id="XMLID_4_" d="M420.345,451.283c0,0,22.164,3.92,27.449,6.71c5.285,2.79-3.149,19.378-12.52,16.063
												c-9.371-3.314-20.898-14.167-20.898-14.167L420.345,451.283z"/>
										</defs>
										<use xlink:href="#XMLID_4_"  style="overflow:visible;fill:#39393B;"/>
										<clipPath id="XMLID_00000154387765721856668040000011759862516998590595_">
											<use xlink:href="#XMLID_4_"  style="overflow:visible;"/>
										</clipPath>
										<path style="clip-path:url(#XMLID_00000154387765721856668040000011759862516998590595_);fill:#FFFFFF;" d="
											M444.56,455.416c0,0-12.656,6.259-11.552,20.692l9.65,2.336l11.901-11.007l0.568-8.555L444.56,455.416z"/>
									</g>
									<g>
										<g>
											
												<line style="fill:none;stroke:#FFFFFF;stroke-width:0.9528;stroke-linecap:round;stroke-linejoin:round;stroke-miterlimit:10;" x1="432.071" y1="457.758" x2="428.175" y2="463.843"/>
											
												<line style="fill:none;stroke:#FFFFFF;stroke-width:0.9528;stroke-linecap:round;stroke-linejoin:round;stroke-miterlimit:10;" x1="429.068" y1="456.809" x2="425.457" y2="462.45"/>
											
												<line style="fill:none;stroke:#FFFFFF;stroke-width:0.9528;stroke-linecap:round;stroke-linejoin:round;stroke-miterlimit:10;" x1="425.897" y1="456.125" x2="422.739" y2="461.057"/>
										</g>
									</g>
								</g>
								<g>
									<path style="fill:#39393B;" d="M389.086,388.328c0,0-34.78-16.769-44.316-2.635c-9.536,14.135,6.732,28.439,16.548,36.573
										c9.817,8.134,39.548,34.78,39.548,34.78l14.585-18.232l-33.378-40.39L389.086,388.328z"/>
									
										<line style="fill:none;stroke:#DCDEE2;stroke-width:0.5;stroke-miterlimit:10;" x1="401.444" y1="422.639" x2="378.35" y2="394.267"/>
								</g>
							</g>
							<g>
								<g>
									<path style="fill:#39393B;" d="M366.711,460.044c0,0-7.368,3.038-1.838,11.228c5.118,7.578,9.136,13.048,27.856-3.134
										L366.711,460.044z"/>
									<polygon style="fill:#F9CABB;" points="411.569,436.279 394.177,453.355 400.145,461.961 422.016,444.037 									"/>
									<g>
										<defs>
											<path id="XMLID_3_" d="M394.177,453.355c0,0-22.164,3.92-27.449,6.71c-5.285,2.79,3.149,19.378,12.52,16.063
												c9.371-3.315,20.898-14.167,20.898-14.167L394.177,453.355z"/>
										</defs>
										<use xlink:href="#XMLID_3_"  style="overflow:visible;fill:#39393B;"/>
										<clipPath id="XMLID_00000173152493924983374970000015119482839946103186_">
											<use xlink:href="#XMLID_3_"  style="overflow:visible;"/>
										</clipPath>
										<path style="clip-path:url(#XMLID_00000173152493924983374970000015119482839946103186_);fill:#FFFFFF;" d="
											M369.962,457.489c0,0,12.656,6.259,11.552,20.692l-9.65,2.336l-11.901-11.007l-0.568-8.555L369.962,457.489z"/>
									</g>
									<g>
										<g>
											
												<line style="fill:none;stroke:#FFFFFF;stroke-width:0.9528;stroke-linecap:round;stroke-linejoin:round;stroke-miterlimit:10;" x1="382.45" y1="459.83" x2="386.347" y2="465.915"/>
											
												<line style="fill:none;stroke:#FFFFFF;stroke-width:0.9528;stroke-linecap:round;stroke-linejoin:round;stroke-miterlimit:10;" x1="385.453" y1="458.882" x2="389.065" y2="464.523"/>
											
												<line style="fill:none;stroke:#FFFFFF;stroke-width:0.9528;stroke-linecap:round;stroke-linejoin:round;stroke-miterlimit:10;" x1="388.625" y1="458.197" x2="391.783" y2="463.129"/>
										</g>
									</g>
								</g>
								<g>
									<path style="fill:#39393B;" d="M425.435,390.401c0,0,34.78-16.77,44.316-2.635c9.536,14.135-6.732,28.439-16.548,36.573
										c-9.817,8.134-39.548,36.645-39.548,36.645l-14.585-20.096l33.378-40.39L425.435,390.401z"/>
									
										<line style="fill:none;stroke:#DCDEE2;stroke-width:0.5;stroke-miterlimit:10;" x1="414.802" y1="421.85" x2="438.27" y2="394.267"/>
								</g>
							</g>
						</g>
						<g>
							<g>
								<g>
									<path style="fill:#FFAC94;" d="M457.099,339.852l20.731,31.481c3.123,4.688,1.921,11.013-2.705,14.227h0
										c-4.648,3.229-11.028,2.122-14.316-2.483l-20.907-30.069L457.099,339.852z"/>
									<path style="fill:#169B5B;" d="M434.069,314.209c13.165,4.028,28.485,27.15,28.485,27.15l-21.125,17.473l-13.467-21.604
										L434.069,314.209z"/>
								</g>
								<g>
									<path style="fill:#FFAC94;" d="M362.434,339.852l-20.731,31.481c-3.123,4.688-1.921,11.013,2.706,14.227l0,0
										c4.648,3.229,11.028,2.122,14.316-2.483l20.907-30.069L362.434,339.852z"/>
									<path style="fill:#169B5B;" d="M385.464,314.209c-13.165,4.029-28.484,27.15-28.484,27.15l21.125,17.473l13.467-21.604
										L385.464,314.209z"/>
								</g>
								<g>
									<path style="fill:#169B5B;" d="M424.318,310.514l12.249,4.643c3.203,1.174,4.02,4.729,3.182,8.037l-3.893,65.214
										c-35.712,15.624-52.547-1.788-52.547-1.788l-1.263-65.709c-0.515-2.299,0.612-5.657,2.801-6.528l16.654-5.562
										L424.318,310.514z"/>
									
										<line style="fill:none;stroke:#DCDEE2;stroke-width:0.5;stroke-miterlimit:10;" x1="382.629" y1="352.019" x2="382.629" y2="331.74"/>
									
										<line style="fill:none;stroke:#DCDEE2;stroke-width:0.5;stroke-miterlimit:10;" x1="438.309" y1="353.829" x2="438.309" y2="334.44"/>
								</g>
							</g>
							<g>
								<g>
									<polygon style="fill:#FFFFFF;" points="378.932,346.621 382.701,342.458 399.662,352.366 421.407,341.621 425.611,345.439 
										397.632,359.616 									"/>
									<polygon style="fill:#084FC7;" points="396.061,354.323 400.989,385.619 406.179,385.619 401.518,354.323 									"/>
									<polygon style="fill:#084FC7;" points="396.061,354.323 377.14,343.748 381.622,371.144 400.989,385.619 									"/>
									<polygon style="fill:#084FC7;" points="401.518,354.323 428.066,342.458 432.355,373.927 406.179,385.619 									"/>
									
										<line style="fill:none;stroke:#FFFFFF;stroke-width:0.5;stroke-miterlimit:10;" x1="396.061" y1="354.323" x2="400.989" y2="385.619"/>
									
										<line style="fill:none;stroke:#FFFFFF;stroke-width:0.5;stroke-miterlimit:10;" x1="401.518" y1="354.323" x2="406.179" y2="385.619"/>
									<path style="fill:#FFFFFF;" d="M423.471,361.512c0.875,3.926-1.598,7.817-5.523,8.693
										c-3.926,0.875-7.817-1.598-8.693-5.523c-0.875-3.926,1.598-7.817,5.523-8.693
										C418.704,355.113,422.596,357.586,423.471,361.512z"/>
									<g>
										<defs>
											<circle id="SVGID_00000064324213532927392330000010062723553528596885_" cx="416.364" cy="363.096" r="6.439"/>
										</defs>
										<clipPath id="SVGID_00000059287201098452920990000010813983653079265178_">
											<use xlink:href="#SVGID_00000064324213532927392330000010062723553528596885_"  style="overflow:visible;"/>
										</clipPath>
										<g style="clip-path:url(#SVGID_00000059287201098452920990000010813983653079265178_);">
											
												<rect x="407.272" y="356.685" transform="matrix(-0.9751 0.2217 -0.2217 -0.9751 902.8728 624.8334)" style="fill:#084FC7;" width="18.184" height="12.823"/>
											<g>
												<defs>
													<polyline id="SVGID_00000027603510870977229150000000682703620356616320_" points="426.651,367.332 423.808,354.829 
														406.076,358.861 408.92,371.364 													"/>
												</defs>
												<clipPath id="SVGID_00000180352416652187323580000011153806743218667433_">
													<use xlink:href="#SVGID_00000027603510870977229150000000682703620356616320_"  style="overflow:visible;"/>
												</clipPath>
												<g style="clip-path:url(#SVGID_00000180352416652187323580000011153806743218667433_);">
													<g>
														
															<rect x="415.886" y="351.005" transform="matrix(-0.7287 -0.6849 0.6849 -0.7287 471.4346 913.0933)" style="fill:#FFFFFF;" width="1.418" height="24.306"/>
														
															<rect x="416.366" y="351.005" transform="matrix(-0.7287 -0.6849 0.6849 -0.7287 471.4292 913.0938)" style="fill:#A92F4B;" width="0.457" height="24.306"/>
													</g>
													<g>
														
															<rect x="415.68" y="351.052" transform="matrix(0.3608 -0.9326 0.9326 0.3608 -72.5956 620.4841)" style="fill:#FFFFFF;" width="1.418" height="24.306"/>
														
															<rect x="416.16" y="351.052" transform="matrix(0.3609 -0.9326 0.9326 0.3609 -72.6172 620.443)" style="fill:#A92F4B;" width="0.457" height="24.306"/>
													</g>
													<g>
														
															<rect x="414.772" y="353.435" transform="matrix(-0.2218 -0.9751 0.9751 -0.2218 154.6393 849.6122)" style="fill:#FFFFFF;" width="3.184" height="19.322"/>
														
															<rect x="414.772" y="353.435" transform="matrix(-0.9751 0.2217 -0.2217 -0.9751 902.8777 624.8242)" style="fill:#FFFFFF;" width="3.184" height="19.322"/>
														
															<rect x="415.568" y="353.435" transform="matrix(-0.9751 0.2217 -0.2217 -0.9751 902.8636 624.8503)" style="fill:#A92F4B;" width="1.592" height="19.322"/>
														
															<rect x="415.568" y="353.435" transform="matrix(-0.2217 -0.9751 0.9751 -0.2217 154.6094 849.5962)" style="fill:#A92F4B;" width="1.592" height="19.322"/>
													</g>
												</g>
											</g>
										</g>
									</g>
								</g>
								<g>
									<g>
										<g>
											<path style="fill:#FFAC94;" d="M432.893,360.875l40.465,7.722c4.127,1.583,6.667,5.75,6.182,10.143l0,0
												c-0.802,7.28-10.025,11.021-16.087,6.91l-32.054-14.319L432.893,360.875z"/>
										</g>
										<path style="fill:#FFAC94;" d="M434.084,361.102l-4.353-4.505l0.465,3.072c0,0-7.101-3.836-12.662-0.837
											c-5.561,3-5.467,11.036,2.036,12.952c7.503,1.916,14.087,0.554,14.087,0.554L434.084,361.102z"/>
										
											<line style="fill:none;stroke:#F28268;stroke-width:0.5;stroke-miterlimit:10;" x1="447.28" y1="363.62" x2="462.553" y2="366.535"/>
										
											<line style="fill:none;stroke:#F28268;stroke-width:0.5;stroke-miterlimit:10;" x1="447.28" y1="363.62" x2="462.553" y2="366.535"/>
									</g>
								</g>
								<g>
									<g>
										<g>
											<path style="fill:#FFAC94;" d="M382.629,362.372l-36.422,6.171c-4.127,1.583-6.667,5.75-6.182,10.143l0,0
												c0.803,7.28,10.18,10.915,16.242,6.803l27.842-14.793L382.629,362.372z"/>
										</g>
										
											<line style="fill:none;stroke:#F28268;stroke-width:0.5;stroke-miterlimit:10;" x1="372.03" y1="363.63" x2="356.468" y2="367.303"/>
									</g>
									<path style="fill:#FFAC94;" d="M375.967,363.268c0,0,0.603-8.838,3.972-9.332c0.095-0.014,0.189-0.027,0.283-0.038
										c7.954-0.982,12.707,8.839,7.119,14.585C383.169,372.773,377.253,376.233,375.967,363.268z"/>
								</g>
							</g>
						</g>
						<g>
							<g>
								<path style="fill:#FFAC94;" d="M416.713,309.605l-1.732-18.023l-14.028,0.38l0.331,21.23
									c0.036,2.324,1.995,1.793,4.271,1.548l7.703-0.83C415.379,313.681,416.92,311.761,416.713,309.605z"/>
							</g>
							<polygon style="fill:#F28268;" points="401.021,298.017 416.364,305.97 414.981,291.582 							"/>
							<g>
								<path style="fill:#FFAC94;" d="M431.083,279.743c0.164,2.941-2.051,5.457-4.948,5.619c-2.897,0.162-5.378-2.091-5.543-5.032
									c-0.164-2.941,2.051-5.457,4.947-5.619C428.437,274.549,430.919,276.802,431.083,279.743z"/>
								
									<path style="fill:none;stroke:#39393B;stroke-width:0.5;stroke-linecap:round;stroke-linejoin:round;stroke-miterlimit:10;" d="
									M422.963,281.358c0.264-0.406,1.12-3.456,4.445-3.15"/>
							</g>
							<g>
								<path style="fill:#FFAC94;" d="M384.389,282.354c0.164,2.941,2.646,5.194,5.543,5.032c2.897-0.162,5.112-2.678,4.948-5.619
									c-0.165-2.941-2.646-5.194-5.543-5.032C386.44,276.897,384.225,279.412,384.389,282.354z"/>
								
									<path style="fill:none;stroke:#39393B;stroke-width:0.5;stroke-linecap:round;stroke-linejoin:round;stroke-miterlimit:10;" d="
									M392.639,283.053c-0.307-0.375-1.498-3.309-4.769-2.635"/>
							</g>
							<path style="fill:#FFAC94;" d="M423.516,270.619c0.379,6.788-0.259,12.7-0.992,16.911c-0.717,4.123-3.215,7.116-6.843,9.616
								l-0.653,0.45c-3.874,2.669-8.942,3.011-13.142,0.884l0,0c-4.201-2.127-7.223-5.072-8.344-9.391
								c-2.039-7.855-2.705-16.643-2.705-16.643s-2.475-17.051,15.168-17.703C423.647,254.09,423.516,270.619,423.516,270.619z"/>
							<g>
								<path style="fill:#39393B;" d="M392.286,279.355c0,0,3.039-12.38-0.095-20.104
									C392.192,259.251,384.019,263.952,392.286,279.355z"/>
								<path style="fill:#39393B;" d="M423.241,277.618c0,0-5.373-11.91-3.12-19.935
									C420.121,257.683,428.766,260.471,423.241,277.618z"/>
								<g>
									<path style="fill:#39393B;" d="M390.94,261.137c0,0,23.976,10.836,32.466,0.714c0,0,6.975-7.977-1.495-13.37
										c-8.47-5.393-26.565,5.936-26.565,5.936S391.231,255.658,390.94,261.137z"/>
									<path style="fill:#39393B;" d="M391.061,261.137c0,0-4.078-6.46,4.861-11.029c1.806-0.923,3.961,0.571,3.637,2.572
										c-0.17,1.049-0.733,2.285-2.017,3.66C393.467,260.704,391.061,261.137,391.061,261.137z"/>
								</g>
							</g>
							<g>
								<g>
									<path style="fill:#39393B;" d="M401.491,280.797c0.051,0.907-0.636,1.682-1.533,1.733c-0.897,0.05-1.666-0.644-1.717-1.551
										c-0.051-0.907,0.636-1.682,1.533-1.733C400.671,279.195,401.44,279.89,401.491,280.797z"/>
									<path style="fill:#39393B;" d="M416.534,279.956c0.051,0.907-0.636,1.682-1.533,1.733c-0.897,0.05-1.666-0.644-1.716-1.551
										c-0.051-0.907,0.636-1.682,1.533-1.733C415.715,278.354,416.484,279.049,416.534,279.956z"/>
								</g>
								
									<path style="fill:none;stroke:#39393B;stroke-width:0.5;stroke-linecap:round;stroke-linejoin:round;stroke-miterlimit:10;" d="
									M406.803,284.617l0.126,2.215c0.032,0.559,0.546,0.95,1.064,0.809l1.152-0.312"/>
								<path style="fill:#39393B;" d="M404.588,273.486l-9.781,1.746c0,0,0.643-2.683,4.641-3.361
									C403.447,271.193,404.588,273.486,404.588,273.486z"/>
								<path style="fill:#39393B;" d="M409.856,273.191l9.914,0.645c0,0-0.938-2.595-4.987-2.823
									C410.734,270.786,409.856,273.191,409.856,273.191z"/>
								<path style="fill:#FFFFFF;" d="M404.214,290.042l7.676-0.429c0,0,0.338,2.046-4.013,2.289
									C404.23,292.106,404.214,290.042,404.214,290.042z"/>
							</g>
							<path style="fill:#FFAC94;" d="M401.502,308.821l-6.714,2.242c0,0,5.033,7.384,15.724,6.829
								c10.691-0.555,15.323-6.804,15.323-6.804l-9.104-2.857L401.502,308.821z"/>
						</g>
					</g>
					<g>
						<g>
							<g>
								<g>
									<g>
										<g>
											<g>
												<path style="fill:#DF615C;" d="M412.987,286.144c0,0.734,1.512,1.329,3.377,1.329c1.865,0,3.377-0.595,3.377-1.329
													c0-0.734-1.512-1.329-3.377-1.329C414.499,284.815,412.987,285.41,412.987,286.144z"/>
											</g>
										</g>
									</g>
								</g>
							</g>
						</g>
						<g>
							<g>
								<g>
									<g>
										<g>
											<g>
												<path style="fill:#DF615C;" d="M396.214,286.144c0,0.734,1.512,1.329,3.377,1.329c1.865,0,3.377-0.595,3.377-1.329
													c0-0.734-1.512-1.329-3.377-1.329C397.726,284.815,396.214,285.41,396.214,286.144z"/>
											</g>
										</g>
									</g>
								</g>
							</g>
						</g>
					</g>
				</g>
			</g>
			<g>
				<path style="fill:#084FC7;" d="M584.713,387.842c0,0-53.884-4.404-69.217,17.062c-15.333,21.466-10.076,56.512,38.113,63.522
					c48.189,7.009,53.884,3.943,53.884,3.943s75.889,5.29,85.527-35.452C702.657,396.175,659.186,377.352,584.713,387.842z"/>
				<g>
					<g>
						<g>
							<path style="fill:#DF615C;" d="M574.537,326.053c0,0-12.836,10.321-17.927,59.36l25.116,7.419l-8.034-26.401L574.537,326.053
								z"/>
							<path style="fill:#DF615C;" d="M612.149,321.461c0,0,20.587,4.4,25.239,14.521l-13.172,73.528
								c0,0-18.536-10.22-53.998-23.579l2.791-55.816c0.129-2.882,2.012-5.39,4.743-6.319l6.864-2.333L612.149,321.461z"/>
						</g>
						<g>
							<path style="fill:#DF615C;" d="M610.118,353.544l30.728,28.982c7.25,6.026,14.914,6.252,20.255-1.516l0,0
								c4.779-6.949,2.689-13.926-3.257-21.647c0,0-13.319-21.031-24.249-28.719c-7.401-5.206-21.036-5.751-26.267,1.632l0,0
								C602.559,339.005,603.775,348.272,610.118,353.544z"/>
							<g>
								<g>
									<path style="fill:#BA7056;" d="M582.114,383.169c5.602,1.578,11.423-1.684,13.001-7.286
										c1.578-5.602-1.684-11.423-7.286-13.001c-5.602-1.578-11.423,1.684-13.001,7.286
										C573.25,375.771,576.512,381.591,582.114,383.169z"/>
									<path style="fill:#BA7056;" d="M580.559,363.458c0,0-0.621-4.55,4.801-3.463c5.422,1.087,11.824,5.488,9.755,15.889
										L580.559,363.458z"/>
								</g>
								<g>
									<path style="fill:#DF615C;" d="M593.015,361.554l52.582,1.139c7.803,0.069,14.213,5.299,13.333,13.053l0,0
										c-0.816,7.186-7.282,12.365-14.473,11.591l-52.514-3.688L593.015,361.554z"/>
									<path style="fill:none;stroke:#FFFFFF;stroke-width:0.5;stroke-miterlimit:10;" d="M614.468,351.233
										c4.106,3.073,10.945,10.941,11.071,10.944c0.126,0.003-32.524-0.623-32.524-0.623l0,0"/>
									
										<line style="fill:none;stroke:#FFFFFF;stroke-width:0.5;stroke-miterlimit:10;" x1="625.539" y1="362.177" x2="641.402" y2="362.439"/>
									
										<line style="fill:none;stroke:#FFFFFF;stroke-width:0.5;stroke-miterlimit:10;" x1="628.391" y1="386.208" x2="591.943" y2="383.649"/>
								</g>
							</g>
						</g>
						
							<line style="fill:none;stroke:#FFFFFF;stroke-width:0.5;stroke-miterlimit:10;" x1="572.555" y1="339.193" x2="569.168" y2="378.256"/>
					</g>
					<g>
						<g>
							<g>
								<polygon style="fill:#BA7056;" points="486.614,439.076 501.761,419.671 513.655,430.241 496.496,449.101 								"/>
								<g>
									<path style="fill:#39393B;" d="M501.94,447.204c0,0-13.22-3.061-13.313-13.108l-30.153-2.168l39.45,27.646L501.94,447.204z
										"/>
									
										<rect x="474.708" y="423.482" transform="matrix(0.5739 -0.8189 0.8189 0.5739 -163.3065 581.2783)" style="fill:#FFFFFF;" width="4.437" height="48.173"/>
								</g>
							</g>
							<path style="fill:#39393B;" d="M608.806,408.403l-67.986-33.26c-6.356-3.166-14.075-1.097-17.995,4.823l-31.295,47.254
								l19.6,16.957l26.646-35.969c0,0,31.927,36.008,60.38,23.268C598.157,431.477,610.709,423.716,608.806,408.403z"/>
						</g>
						<g>
							<g>
								<polygon style="fill:#BA7056;" points="502.024,445.845 517.171,426.44 529.065,437.01 511.906,455.87 								"/>
								<g>
									<path style="fill:#39393B;" d="M517.35,453.973c0,0-13.22-3.061-13.313-13.108l-30.154-2.168l39.45,27.646L517.35,453.973z
										"/>
									
										<rect x="490.118" y="430.251" transform="matrix(0.5739 -0.8189 0.8189 0.5739 -162.2838 596.7807)" style="fill:#FFFFFF;" width="4.436" height="48.173"/>
								</g>
							</g>
							<path style="fill:#39393B;" d="M624.216,409.51l-67.986-33.26c-6.356-3.166-14.075-1.097-17.995,4.823l-34.126,51.501
								l21.016,16.957l28.062-40.215c0,0,31.927,36.008,60.38,23.268C613.567,432.584,626.12,424.823,624.216,409.51z"/>
							
								<line style="fill:none;stroke:#DCDEE2;stroke-width:0.5;stroke-miterlimit:10;" x1="505.947" y1="429.761" x2="535.224" y2="385.619"/>
						</g>
					</g>
					<g>
						<g>
							<path style="fill:#39393B;" d="M606.798,270.738c1.157,8.133,8.689,13.788,16.822,12.631
								c8.133-1.157,13.788-8.689,12.631-16.822c-1.157-8.133-8.689-13.788-16.822-12.631
								C611.296,255.073,605.641,262.604,606.798,270.738z"/>
							<path style="fill:#EBB12B;" d="M603.525,271.184c0,0,4.763-5.972,9.832-1.436c4.256,3.808,2.001,8.593-2,9.602
								C607.355,280.357,603.525,271.184,603.525,271.184z"/>
						</g>
						<path style="fill:#39393B;" d="M613.732,288.784c-3.023,10.926-14.33,17.333-25.256,14.31
							c-10.926-3.023-17.333-14.331-14.31-25.256c3.023-10.926,14.331-17.333,25.257-14.31
							C610.349,266.55,616.755,277.858,613.732,288.784z"/>
						<path style="fill:#A35740;" d="M583.488,293.405c-0.061,3.56-2.996,6.396-6.556,6.335c-3.56-0.061-6.396-2.996-6.335-6.556
							c0.061-3.56,2.996-6.396,6.556-6.335C580.713,286.91,583.549,289.845,583.488,293.405z"/>
						<path style="fill:#BA7056;" d="M586.494,311.293l2.637,11.982c0.832,4.268,3.379,3.22,7.573,2.368l0,0
							c3.58-0.728,8.167-0.562,7.889-4.205l-4.946-18.85L586.494,311.293z"/>
						<polygon style="fill:#A35740;" points="588.244,319.245 599.365,305.474 586.223,310.052 						"/>
						<path style="fill:#BA7056;" d="M588.371,311.282L588.371,311.282c-8.213-0.689-14.477-8.412-14.14-15.139l0.819-14.584
							c0.422-8.431,7.456-15.007,15.896-14.862l0,0c8.641,0.148,17.039,7.299,16.891,15.939l-0.855,12.753
							C606.32,305.252,598.255,311.451,588.371,311.282z"/>
						<g>
							
								<path style="fill:none;stroke:#39393B;stroke-width:0.5;stroke-linecap:round;stroke-linejoin:round;stroke-miterlimit:10;" d="
								M582.793,295.168l-0.503,3.685c-0.119,0.873,0.179,1.697,0.646,1.783l1.085,0.202"/>
							<path style="fill:#39393B;" d="M590.706,287.646c0,0-3.39-0.21-3.397,1.168c0,0,0.021,0.933,2.978,1.059
								c2.957,0.126,4.601-0.026,4.853-0.907C595.392,288.085,592.293,287.623,590.706,287.646z"/>
							<path style="fill:#39393B;" d="M577.887,287.29c0,0,2.799-0.249,3.008,1.048c0,0,0.12,0.878-2.329,1.041
								c-2.449,0.163-3.241-0.159-3.462-0.869C574.854,287.706,576.558,287.292,577.887,287.29z"/>
							<path style="fill:#39393B;" d="M579.566,293.254c-0.042,0.784-0.712,1.385-1.496,1.342c-0.784-0.042-1.385-0.712-1.343-1.496
								c0.042-0.784,0.712-1.385,1.496-1.342C579.007,291.801,579.608,292.47,579.566,293.254z"/>
							<path style="fill:#39393B;" d="M592.018,293.915c-0.042,0.784-0.712,1.385-1.496,1.342c-0.784-0.043-1.385-0.712-1.343-1.496
								c0.042-0.784,0.712-1.385,1.496-1.342C591.459,292.461,592.06,293.131,592.018,293.915z"/>
							<path style="fill:#FFFFFF;" d="M592.794,303.18c0,0.924-2.016,2.894-3.617,2.894s-3.954-1.002-3.954-1.926
								c0-0.924,1.652-1.054,3.253-1.054S592.794,302.255,592.794,303.18z"/>
						</g>
						<path style="fill:#39393B;" d="M586.964,265.147c0,0,4.547,3.383,6.303,8.379c2.166,6.165,2.599,14.4,15.243,17.117
							c0,0,7.274-10.656,0.569-17.535c-6.705-6.879-12.039-7.845-12.039-7.845L586.964,265.147z"/>
						<path style="fill:#39393B;" d="M575.05,281.559c0,0,20.807,3.092,21.607-10.928c0,0-5.79-7.412-12.064-5.395
							C578.319,267.253,573.426,277.363,575.05,281.559z"/>
						<path style="fill:#39393B;" d="M599.583,283.989c-0.011,0.341,3.456,11.825,3.456,11.825l3.171-10.347L599.583,283.989z"/>
						<g>
							<path style="fill:#BA7056;" d="M614.651,294.544c-0.061,3.585-3.017,6.441-6.602,6.379c-3.584-0.061-6.441-3.017-6.379-6.602
								c0.061-3.585,3.017-6.441,6.602-6.379C611.856,288.004,614.712,290.96,614.651,294.544z"/>
							
								<path style="fill:none;stroke:#39393B;stroke-width:0.5;stroke-linecap:round;stroke-linejoin:round;stroke-miterlimit:10;" d="
								M605.859,296.324c0,0,0.081-4.706,4.568-3.888"/>
						</g>
						<path style="fill:#BA7056;" d="M602.947,318.79l9.202,2.671c0,0-4.645,8.215-18.733,7.885
							c-10.721-0.252-8.799-7.882-8.799-7.882l8.503-2.39L602.947,318.79z"/>
						<g>
							<g>
								<g>
									<g>
										<g>
											<g>
												<g>
													<path style="fill:#A35740;" d="M588.643,298.776c0,0.734,1.512,1.329,3.377,1.329c1.865,0,3.377-0.595,3.377-1.329
														c0-0.734-1.512-1.329-3.377-1.329C590.155,297.447,588.643,298.042,588.643,298.776z"/>
												</g>
											</g>
										</g>
									</g>
								</g>
							</g>
							<g>
								<g>
									<g>
										<g>
											<g>
												<g>
													<path style="fill:#A35740;" d="M574.735,298.004c0,0.734,1.201,1.329,2.684,1.329c1.482,0,2.683-0.595,2.683-1.329
														c0-0.734-1.202-1.329-2.683-1.329C575.937,296.674,574.735,297.27,574.735,298.004z"/>
												</g>
											</g>
										</g>
									</g>
								</g>
							</g>
						</g>
					</g>
				</g>
				<g>
					<path style="fill:#084FC7;" d="M584.835,441.155c0,0,22.22-26.393,65.848-21.484
						C650.683,419.671,611.059,447.966,584.835,441.155z"/>
					<path style="fill:none;stroke:#FFFFFF;stroke-width:0.5;stroke-miterlimit:10;" d="M592.053,434.616
						c0,0-7.866,4.246-17.623,17.904"/>
					<path style="fill:none;stroke:#FFFFFF;stroke-width:0.5;stroke-miterlimit:10;" d="M623.699,420.474
						c0,0,14.518-2.415,26.984-0.803"/>
					<path style="fill:none;stroke:#FFFFFF;stroke-width:0.5;stroke-miterlimit:10;" d="M653.894,393.705
						c-1.19,0.952-9.998,4.203-16.703,18.447"/>
					<path style="fill:none;stroke:#FFFFFF;stroke-width:0.5;stroke-miterlimit:10;" d="M627.856,435.404
						c0,0,20.02,3.293,28.348,17.116"/>
				</g>
			</g>
		</g>
		<g>
			<g>
				<polygon style="fill:#FFFFFF;" points="545.948,450.812 549.33,479.194 562.272,479.194 567.272,450.812 				"/>
				<g>
					<rect x="543.669" y="448.311" style="fill:#39393B;" width="25.883" height="2.5"/>
					<polygon style="fill:#39393B;" points="545.928,448.624 548.985,444.728 564.388,444.728 567.493,449.103 					"/>
				</g>
			</g>
			<path style="fill:#39393B;" d="M562.518,463.605c0,3.263-2.645,5.908-5.908,5.908c-3.263,0-5.908-2.645-5.908-5.908
				c0-3.263,2.645-5.908,5.908-5.908C559.873,457.697,562.518,460.342,562.518,463.605z"/>
		</g>
	</g>
	<g>
		<defs>
			<path id="SVGID_00000040537430367280702400000014150834556512505264_" d="M44.002,168.486
				c0.01-69.426,56.001-145.5,125.685-150.096c1.224-0.081,2.459-0.19,3.709-0.211c118.392-2.004,107.55,75.329,198.292,86.839
				c98.656,12.514,199.836-72.623,296.21,18.858c77.514,73.578,94.402,296.571-190.996,306.028
				C248.559,437.471,43.972,375.621,44.002,168.486z"/>
		</defs>
		<clipPath id="SVGID_00000106124894148082839880000010952257935757966502_">
			<use xlink:href="#SVGID_00000040537430367280702400000014150834556512505264_"  style="overflow:visible;"/>
		</clipPath>
		<g style="clip-path:url(#SVGID_00000106124894148082839880000010952257935757966502_);">
			<g>
				<g>
					<rect x="210.719" y="293.272" style="fill:#DCDEE2;" width="61.358" height="15.412"/>
					<path style="opacity:0.9;fill:#FFFFFF;" d="M264.397,305.294h-46.43c-0.49,0-0.888-0.397-0.888-0.888v-6.858
						c0-0.49,0.398-0.888,0.888-0.888h46.43c0.49,0,0.888,0.397,0.888,0.888v6.858C265.285,304.897,264.887,305.294,264.397,305.294
						z"/>
					<path style="fill:#EDEEF1;" d="M274.031,428.152h-65.237v-116.91c0-1.413,1.145-2.558,2.558-2.558h60.121
						c1.413,0,2.558,1.145,2.558,2.558V428.152z"/>
					<rect x="218.73" y="315.673" style="fill:#DCDEE2;" width="45.364" height="112.479"/>
					
						<rect x="189.675" y="353.637" transform="matrix(-1.836970e-16 1 -1 -1.836970e-16 613.8939 131.0692)" style="fill:#EDEEF1;" width="103.475" height="37.689"/>
					<rect x="224.76" y="322.937" style="fill:#EDEEF1;" width="33.304" height="99.089"/>
					<rect x="248.47" y="322.937" style="fill:#DCDEE2;" width="9.594" height="15.213"/>
					<rect x="236.136" y="322.937" style="fill:#DCDEE2;" width="10.553" height="15.213"/>
					<rect x="224.76" y="322.937" style="fill:#DCDEE2;" width="9.594" height="15.213"/>
					<rect x="248.47" y="339.931" style="fill:#DCDEE2;" width="9.594" height="15.213"/>
					<rect x="224.76" y="339.931" style="fill:#DCDEE2;" width="9.594" height="15.213"/>
					<rect x="236.136" y="339.931" style="fill:#DCDEE2;" width="10.553" height="15.213"/>
					<rect x="248.47" y="356.652" style="fill:#DCDEE2;" width="9.594" height="15.213"/>
					<rect x="224.76" y="356.652" style="fill:#DCDEE2;" width="9.594" height="15.213"/>
					<rect x="236.136" y="356.652" style="fill:#DCDEE2;" width="10.553" height="15.213"/>
					<rect x="248.47" y="373.098" style="fill:#DCDEE2;" width="9.594" height="15.213"/>
					<rect x="224.76" y="373.098" style="fill:#DCDEE2;" width="9.594" height="15.213"/>
					<rect x="236.136" y="373.098" style="fill:#DCDEE2;" width="10.553" height="15.213"/>
					<rect x="248.47" y="389.819" style="fill:#DCDEE2;" width="9.594" height="15.213"/>
					<rect x="224.76" y="389.819" style="fill:#DCDEE2;" width="9.594" height="15.213"/>
					<rect x="236.136" y="389.819" style="fill:#DCDEE2;" width="10.553" height="15.213"/>
					<rect x="248.47" y="406.813" style="fill:#DCDEE2;" width="9.594" height="15.213"/>
					<rect x="224.76" y="406.813" style="fill:#DCDEE2;" width="9.594" height="15.213"/>
					<rect x="236.136" y="406.813" style="fill:#DCDEE2;" width="10.553" height="15.213"/>
					<g>
						<g>
							<rect x="246.689" y="321.703" style="fill:#EDEEF1;" width="1.782" height="100.323"/>
							<rect x="234.354" y="321.703" style="fill:#EDEEF1;" width="1.781" height="100.323"/>
						</g>
					</g>
					<g>
						<g>
							<rect x="224.76" y="338.15" style="fill:#EDEEF1;" width="33.304" height="1.782"/>
							<rect x="224.76" y="354.87" style="fill:#EDEEF1;" width="33.304" height="1.782"/>
							<rect x="224.76" y="371.591" style="fill:#EDEEF1;" width="33.304" height="1.782"/>
							<rect x="224.76" y="388.311" style="fill:#EDEEF1;" width="33.304" height="1.782"/>
							<rect x="224.76" y="405.031" style="fill:#EDEEF1;" width="33.304" height="1.782"/>
						</g>
					</g>
				</g>
				<path style="fill:#EDEEF1;" d="M275.102,293.272c0.001-0.462,0.002-0.925,0-1.387c-0.002-0.369,0.052-0.72-0.056-1.083
					c-0.292-0.989-1.529-1.691-2.35-2.234c-1.093-0.721-2.233-1.372-3.392-1.982c-1.529-0.806-3.096-1.538-4.689-2.207
					c-1.889-0.794-3.816-1.498-5.771-2.111c-2.18-0.684-4.396-1.253-6.638-1.695c-2.406-0.475-4.841-0.802-7.289-0.959
					c-1.092-0.07-2.186-0.106-3.281-0.106c-2.504,0-5.007,0.19-7.485,0.552c-2.3,0.337-4.577,0.822-6.818,1.438
					c-2.034,0.56-4.038,1.229-6.003,1.996c-1.712,0.668-3.394,1.411-5.041,2.225c-1.336,0.66-2.649,1.367-3.932,2.126
					c-1.01,0.597-1.99,1.238-2.95,1.904c-0.164,0.114-0.335,0.216-0.499,0.33c-0.374,0.262-0.653,0.549-0.639,1.013
					c0.006,0.203,0,0.407,0,0.609c0,0.524,0,1.048,0,1.572H275.102z"/>
			</g>
			<line style="fill:none;stroke:#DCDEE2;stroke-miterlimit:10;" x1="217.08" y1="300.978" x2="265.285" y2="300.978"/>
		</g>
		<g style="clip-path:url(#SVGID_00000106124894148082839880000010952257935757966502_);">
			<path style="fill:#EDEEF1;" d="M167.844,208.386h-1.179c0,0-0.884,25.874-8.31,39.076h8.9h8.9
				C168.728,234.26,167.844,208.386,167.844,208.386z"/>
			<rect x="148.733" y="287.701" style="fill:#EDEEF1;" width="36.718" height="14.867"/>
			<rect x="156.528" y="247.462" style="fill:#EDEEF1;" width="21.129" height="2.387"/>
			<rect x="156.528" y="251.882" style="fill:#EDEEF1;" width="21.129" height="14.852"/>
			<rect x="155.349" y="249.849" style="fill:#DCDEE2;" width="23.545" height="2.033"/>
			<path style="fill:#DCDEE2;" d="M175.156,264.497h-1.383c-0.204,0-0.369-0.165-0.369-0.369v-9.015
				c0-0.104,0.044-0.204,0.122-0.274l0.692-0.625c0.14-0.127,0.354-0.127,0.495,0l0.692,0.625c0.077,0.07,0.122,0.169,0.122,0.274
				v9.015C175.526,264.332,175.36,264.497,175.156,264.497z"/>
			<g>
				<path style="fill:#DCDEE2;" d="M180.709,300.434h-1.383c-0.204,0-0.369-0.165-0.369-0.369v-6.893
					c0-0.104,0.044-0.204,0.122-0.274l0.692-0.625c0.141-0.127,0.354-0.127,0.495,0l0.692,0.625c0.078,0.07,0.122,0.17,0.122,0.274
					v6.893C181.078,300.269,180.912,300.434,180.709,300.434z"/>
				<path style="fill:#DCDEE2;" d="M175.539,300.434h-1.383c-0.204,0-0.369-0.165-0.369-0.369v-6.893
					c0-0.104,0.044-0.204,0.122-0.274l0.692-0.625c0.14-0.127,0.354-0.127,0.495,0l0.692,0.625c0.077,0.07,0.122,0.17,0.122,0.274
					v6.893C175.908,300.269,175.743,300.434,175.539,300.434z"/>
				<path style="fill:#DCDEE2;" d="M170.369,300.434h-1.383c-0.204,0-0.369-0.165-0.369-0.369v-6.893
					c0-0.104,0.044-0.204,0.122-0.274l0.692-0.625c0.141-0.127,0.354-0.127,0.495,0l0.692,0.625c0.077,0.07,0.122,0.17,0.122,0.274
					v6.893C170.738,300.269,170.573,300.434,170.369,300.434z"/>
				<path style="fill:#DCDEE2;" d="M165.199,300.434h-1.383c-0.204,0-0.369-0.165-0.369-0.369v-6.893
					c0-0.104,0.044-0.204,0.122-0.274l0.692-0.625c0.141-0.127,0.354-0.127,0.495,0l0.692,0.625c0.077,0.07,0.122,0.17,0.122,0.274
					v6.893C165.568,300.269,165.403,300.434,165.199,300.434z"/>
				<path style="fill:#DCDEE2;" d="M160.029,300.434h-1.384c-0.204,0-0.369-0.165-0.369-0.369v-6.893
					c0-0.104,0.044-0.204,0.122-0.274l0.692-0.625c0.14-0.127,0.354-0.127,0.495,0l0.692,0.625c0.077,0.07,0.122,0.17,0.122,0.274
					v6.893C160.398,300.269,160.233,300.434,160.029,300.434z"/>
				<path style="fill:#DCDEE2;" d="M154.859,300.434h-1.383c-0.204,0-0.369-0.165-0.369-0.369v-6.893
					c0-0.104,0.044-0.204,0.122-0.274l0.692-0.625c0.141-0.127,0.354-0.127,0.495,0l0.692,0.625c0.078,0.07,0.122,0.17,0.122,0.274
					v6.893C155.228,300.269,155.063,300.434,154.859,300.434z"/>
			</g>
			<path style="fill:#DCDEE2;" d="M170.241,264.497h-1.383c-0.204,0-0.369-0.165-0.369-0.369v-9.015
				c0-0.104,0.044-0.204,0.122-0.274l0.692-0.625c0.14-0.127,0.354-0.127,0.495,0l0.692,0.625c0.078,0.07,0.122,0.169,0.122,0.274
				v9.015C170.611,264.332,170.445,264.497,170.241,264.497z"/>
			<path style="fill:#DCDEE2;" d="M165.326,264.497h-1.383c-0.204,0-0.369-0.165-0.369-0.369v-9.015
				c0-0.104,0.044-0.204,0.122-0.274l0.692-0.625c0.141-0.127,0.354-0.127,0.495,0l0.692,0.625c0.077,0.07,0.122,0.169,0.122,0.274
				v9.015C165.695,264.332,165.53,264.497,165.326,264.497z"/>
			<path style="fill:#DCDEE2;" d="M160.411,264.497h-1.383c-0.204,0-0.369-0.165-0.369-0.369v-9.015
				c0-0.104,0.044-0.204,0.122-0.274l0.692-0.625c0.14-0.127,0.354-0.127,0.495,0l0.692,0.625c0.078,0.07,0.122,0.169,0.122,0.274
				v9.015C160.78,264.332,160.615,264.497,160.411,264.497z"/>
			<polygon style="fill:#EDEEF1;" points="177.657,266.734 167.092,266.734 156.528,266.734 148.733,287.701 167.092,287.701 
				185.451,287.701 			"/>
			<g>
				<g>
					<rect x="172.152" y="273.102" style="fill:#EDEEF1;" width="3.097" height="4.334"/>
					<rect x="175.76" y="280.351" style="fill:#EDEEF1;" width="3.096" height="4.334"/>
					<rect x="168.92" y="280.351" style="fill:#EDEEF1;" width="3.096" height="4.334"/>
					<rect x="162.079" y="280.351" style="fill:#EDEEF1;" width="3.097" height="4.334"/>
					<rect x="155.239" y="280.351" style="fill:#EDEEF1;" width="3.097" height="4.334"/>
					<rect x="165.499" y="273.102" style="fill:#EDEEF1;" width="3.097" height="4.334"/>
					<rect x="158.847" y="273.102" style="fill:#EDEEF1;" width="3.097" height="4.334"/>
				</g>
				<g>
					<polygon style="fill:#DCDEE2;" points="173.745,270.227 171.332,274.453 176.156,274.453 					"/>
					<polygon style="fill:#DCDEE2;" points="177.353,277.476 174.94,281.702 179.764,281.702 					"/>
					<polygon style="fill:#DCDEE2;" points="168.1,281.702 172.924,281.702 170.512,277.476 					"/>
					<polygon style="fill:#DCDEE2;" points="161.261,281.702 166.083,281.702 163.672,277.476 					"/>
					<polygon style="fill:#DCDEE2;" points="154.42,281.702 159.243,281.702 156.831,277.476 					"/>
					<polygon style="fill:#DCDEE2;" points="167.092,270.227 164.68,274.453 169.503,274.453 					"/>
					<polygon style="fill:#DCDEE2;" points="160.44,270.227 158.027,274.453 162.851,274.453 					"/>
				</g>
			</g>
			<rect x="145.948" y="302.568" style="fill:#EDEEF1;" width="42.288" height="30.883"/>
			<rect x="146.847" y="287.642" style="fill:#DCDEE2;" width="40.49" height="1.96"/>
			<g>
				<rect x="152.371" y="304.985" style="opacity:0.9;fill:#FFFFFF;" width="29.442" height="28.467"/>
				<rect x="154.729" y="307.264" style="fill:#EDEEF1;" width="24.727" height="23.908"/>
				
					<ellipse transform="matrix(0.9926 -0.1214 0.1214 0.9926 -37.5282 22.6536)" style="fill:#EDEEF1;" cx="167.092" cy="319.218" rx="11.954" ry="11.954"/>
				<circle style="fill:#DCDEE2;" cx="167.092" cy="319.218" r="8.771"/>
				<path style="opacity:0.9;fill:#FFFFFF;" d="M172.861,319.218c0,3.186-2.583,5.768-5.768,5.768s-5.769-2.583-5.769-5.768
					c0-3.186,2.583-5.769,5.769-5.769S172.861,316.032,172.861,319.218z"/>
				<path style="fill:#DCDEE2;" d="M167.768,317.934v-3.07c0-0.373-0.302-0.675-0.675-0.675c-0.373,0-0.675,0.302-0.675,0.675v3.07
					c-0.466,0.247-0.794,0.721-0.794,1.284c0,0.146,0.044,0.278,0.083,0.411l-6.444,6.816c-0.257,0.271-0.244,0.698,0.027,0.954
					c0.13,0.123,0.297,0.185,0.464,0.185c0.179,0,0.358-0.071,0.491-0.212l6.405-6.775c0.142,0.046,0.286,0.09,0.444,0.09
					c0.811,0,1.47-0.659,1.47-1.47C168.562,318.655,168.233,318.181,167.768,317.934z"/>
			</g>
			<rect x="145.948" y="333.452" style="fill:#EDEEF1;" width="42.288" height="8.723"/>
			<rect x="145.948" y="342.174" style="fill:#EDEEF1;" width="42.288" height="88.092"/>
			<rect x="145.948" y="371.761" style="fill:#DCDEE2;" width="42.288" height="1.886"/>
			<rect x="145.948" y="377.655" style="fill:#DCDEE2;" width="42.288" height="1.886"/>
			<rect x="145.948" y="401.583" style="fill:#DCDEE2;" width="42.288" height="1.886"/>
			<rect x="145.948" y="407.477" style="fill:#DCDEE2;" width="42.288" height="1.886"/>
			<rect x="165.545" y="206.235" style="fill:#DCDEE2;" width="3.418" height="2.151"/>
			<rect x="166.818" y="193.062" style="fill:#EDEEF1;" width="0.873" height="13.172"/>
			<g>
				<rect x="178.329" y="346.366" style="fill:#DCDEE2;" width="4.827" height="22.165"/>
				<rect x="169.229" y="346.366" style="fill:#DCDEE2;" width="4.827" height="22.165"/>
				<rect x="160.128" y="346.366" style="fill:#DCDEE2;" width="4.827" height="22.165"/>
				<rect x="151.028" y="346.366" style="fill:#DCDEE2;" width="4.827" height="22.165"/>
			</g>
			<g>
				<rect x="178.329" y="382.792" style="fill:#DCDEE2;" width="4.827" height="15.993"/>
				<rect x="169.229" y="382.792" style="fill:#DCDEE2;" width="4.827" height="15.993"/>
				<rect x="160.128" y="382.792" style="fill:#DCDEE2;" width="4.827" height="15.993"/>
				<rect x="151.028" y="382.792" style="fill:#DCDEE2;" width="4.827" height="15.993"/>
			</g>
			<g>
				<rect x="178.329" y="414.274" style="fill:#DCDEE2;" width="4.827" height="15.993"/>
				<rect x="169.229" y="414.274" style="fill:#DCDEE2;" width="4.827" height="15.993"/>
				<rect x="160.128" y="414.274" style="fill:#DCDEE2;" width="4.827" height="15.993"/>
				<rect x="151.028" y="414.274" style="fill:#DCDEE2;" width="4.827" height="15.993"/>
			</g>
		</g>
	</g>
</g>
<g id="TEXTS">
	
		<text transform="matrix(1 0 0 1 512.3336 259.251)" style="fill:#FFFFFF; font-family:'PatrickHand-Regular'; font-size:18.3574px;">Hello!</text>
</g>
</svg>
